<?xml version="1.0" standalone="no"?>
<!DOCTYPE svg PUBLIC "-//W3C//DTD SVG 20010904//EN"
 "http://www.w3.org/TR/2001/REC-SVG-20010904/DTD/svg10.dtd">
<svg version="1.0" xmlns="http://www.w3.org/2000/svg"
 width="236.000000pt" height="236.000000pt" viewBox="0 0 236.000000 236.000000"
 preserveAspectRatio="xMidYMid meet">

<g transform="translate(0.000000,236.000000) scale(0.100000,-0.100000)"
fill="#000000" stroke="none">
<path d="M691 1628 c-4 -13 -45 -121 -90 -241 -44 -119 -81 -219 -81 -222 0
-3 25 -4 57 -3 l56 3 39 100 38 100 -2 -100 -3 -100 60 0 60 0 91 243 92 242
-58 0 -57 0 -38 -100 c-21 -55 -39 -99 -41 -98 -1 2 0 47 4 101 l7 97 -63 0
c-56 0 -63 -2 -71 -22z"/>
<path d="M937 1418 c-48 -128 -87 -238 -87 -244 0 -6 22 -11 50 -11 38 -1 52
3 59 16 9 15 126 322 167 434 l13 37 -58 0 -57 0 -87 -232z"/>
<path d="M1155 1638 c-119 -315 -172 -464 -169 -469 2 -4 27 -6 55 -5 l51 1
38 94 37 95 8 -98 7 -99 71 6 c38 3 66 2 61 -2 -5 -4 -147 -45 -317 -91 -268
-72 -315 -82 -371 -78 -71 4 -124 35 -151 88 -19 36 -19 132 0 185 8 21 13 41
11 43 -2 2 -31 -34 -64 -79 -77 -106 -132 -217 -145 -295 -10 -56 -9 -65 14
-110 19 -39 35 -55 79 -79 48 -26 64 -30 130 -29 102 1 134 14 865 329 341
147 642 277 669 288 27 12 45 22 40 24 -5 1 -121 -28 -259 -65 -225 -62 -250
-67 -253 -51 -3 15 -15 19 -67 21 l-63 3 22 55 22 55 56 3 c55 3 56 4 72 43 9
22 16 42 16 44 0 3 -25 5 -55 5 l-55 0 18 48 18 47 61 3 c59 3 62 4 72 34 6
17 11 35 11 39 0 5 -78 9 -174 9 l-175 0 -53 -64 c-29 -36 -54 -63 -56 -61 -2
1 8 30 22 64 l25 61 -60 0 c-39 0 -61 -4 -64 -12z m286 -45 c-10 -27 -46 -123
-81 -216 -35 -92 -64 -166 -66 -164 -2 1 -4 56 -5 122 l-2 120 84 92 c46 51
85 93 86 93 2 0 -6 -21 -16 -47z"/>
</g>
</svg>
