<?xml version="1.0" standalone="no"?>
<!DOCTYPE svg PUBLIC "-//W3C//DTD SVG 20010904//EN"
 "http://www.w3.org/TR/2001/REC-SVG-20010904/DTD/svg10.dtd">
<svg version="1.0" xmlns="http://www.w3.org/2000/svg"
 width="564.000000pt" height="423.000000pt" viewBox="0 0 564.000000 423.000000"
 preserveAspectRatio="xMidYMid meet">

<g transform="translate(0.000000,423.000000) scale(0.100000,-0.100000)"
fill="#000000" stroke="none">
<path d="M0 2115 l0 -2115 2820 0 2820 0 0 2115 0 2115 -2820 0 -2820 0 0
-2115z m3678 823 c6 -1 12 -5 12 -10 0 -5 4 -7 9 -4 4 3 19 -4 32 -15 41 -36
32 -108 -40 -309 -41 -116 -73 -246 -69 -284 3 -29 6 -31 45 -34 47 -4 134 12
348 63 162 39 313 70 385 79 70 10 119 -24 85 -58 -9 -9 -13 -16 -9 -16 4 0
-1 -6 -11 -14 -11 -8 -23 -12 -27 -10 -5 3 -8 1 -8 -3 0 -5 -30 -24 -67 -43
-38 -19 -69 -38 -71 -42 -2 -5 -8 -8 -13 -8 -6 0 -75 -31 -155 -70 -80 -38
-147 -70 -149 -70 -3 0 -96 -43 -242 -110 -34 -16 -124 -55 -200 -85 -76 -31
-176 -74 -221 -96 -46 -21 -86 -39 -89 -39 -5 0 -26 -9 -146 -64 -44 -20 -80
-36 -82 -36 -1 0 -29 -12 -61 -27 -33 -14 -67 -25 -78 -24 -11 2 -16 -2 -12
-8 4 -6 1 -11 -7 -11 -8 0 -36 -9 -63 -21 -27 -11 -62 -26 -79 -33 -16 -8 -82
-35 -145 -61 -63 -26 -139 -58 -168 -71 -29 -13 -57 -24 -62 -24 -5 0 -24 -6
-42 -14 -18 -8 -49 -21 -70 -30 -20 -9 -40 -16 -45 -16 -4 0 -24 -8 -43 -19
-19 -10 -53 -24 -75 -31 -22 -7 -67 -26 -100 -41 -33 -15 -63 -25 -68 -22 -4
2 -13 0 -20 -5 -18 -14 -150 -42 -224 -47 -35 -2 -67 -7 -72 -9 -4 -3 -8 8 -7
24 1 28 3 29 56 35 133 14 228 46 610 211 835 360 1342 579 1710 739 212 92
420 181 463 198 95 38 88 48 -8 12 -38 -15 -220 -67 -404 -117 -185 -50 -383
-103 -441 -119 -57 -15 -106 -26 -108 -25 -1 2 5 25 16 52 l18 49 -103 -3
c-137 -5 -136 -6 -112 60 10 29 19 54 19 55 0 2 54 3 119 3 l119 0 30 83 c17
45 33 89 36 97 5 13 -10 15 -109 12 -126 -4 -125 -5 -104 57 12 34 5 33 145
31 66 -1 94 3 102 13 6 7 32 69 56 136 31 87 40 121 29 117 -8 -3 -155 -6
-326 -6 l-312 0 -70 -97 c-38 -52 -87 -120 -107 -150 -21 -30 -38 -51 -38 -47
0 5 25 72 55 149 30 77 55 142 55 145 0 3 -47 5 -105 5 l-105 0 -35 -95 c-131
-356 -265 -685 -279 -688 -9 -2 -16 1 -16 7 0 9 166 454 259 696 17 44 31 80
31 80 0 0 -47 0 -105 0 -102 0 -105 -1 -115 -25 -18 -46 -130 -343 -208 -552
-59 -158 -81 -208 -94 -208 -19 0 -29 -30 161 485 61 164 111 299 111 300 0 0
-44 -1 -97 -2 l-98 -1 -62 -164 c-34 -89 -62 -171 -62 -180 -1 -10 -4 -18 -9
-18 -7 0 -5 38 13 270 l7 95 -123 -2 -124 -2 -151 -408 c-84 -224 -155 -416
-159 -425 -7 -16 1 -18 88 -18 65 0 98 4 103 12 5 7 45 112 91 233 45 121 82
209 83 195 0 -14 -7 -106 -15 -205 -8 -99 -15 -192 -15 -208 l0 -27 566 0
c312 0 569 -1 571 -4 6 -6 27 0 -602 -172 l-500 -138 -120 0 c-113 -1 -124 1
-179 28 -98 48 -155 151 -156 282 0 89 13 158 44 235 13 32 22 59 21 59 -2 0
-36 -44 -78 -97 -212 -278 -321 -505 -321 -673 -1 -64 4 -84 29 -134 49 -97
160 -173 273 -185 56 -6 57 -6 59 -39 1 -24 -2 -31 -10 -24 -7 5 -23 9 -37 10
-71 3 -191 59 -252 116 -37 35 -90 114 -94 140 -2 12 -8 41 -13 66 -11 49 -2
154 15 181 5 8 3 9 -5 4 -10 -6 -11 -3 -3 12 6 10 22 52 36 92 14 40 31 80 37
87 6 8 8 14 3 14 -5 0 -4 4 1 8 6 4 28 43 49 87 93 194 244 383 323 404 45 12
64 34 100 111 38 83 55 125 63 150 5 14 29 74 54 134 70 168 90 179 316 171
63 -2 133 0 155 5 31 6 1361 5 1413 -2z m-562 -489 c-62 -173 -118 -327 -123
-344 -8 -23 -12 11 -18 153 l-7 182 38 50 c22 26 80 100 129 163 50 63 91 113
93 112 1 -1 -49 -143 -112 -316z m-378 -231 c-3 -51 -7 -103 -7 -115 -1 -19
-7 -23 -36 -23 -22 0 -35 5 -35 13 0 8 16 54 35 103 19 49 35 95 35 101 0 7 3
13 8 13 4 0 4 -42 0 -92z"/>
<path d="M1760 1933 c-73 -16 -112 -33 -117 -49 -7 -21 47 -72 94 -88 26 -9
66 -16 90 -16 88 0 237 52 273 95 13 15 -12 24 -120 44 -30 5 -68 14 -83 20
-35 14 -55 13 -137 -6z"/>
</g>
</svg>
